<mxfile host="Electron" agent="Mozilla/5.0 (Windows NT 10.0; Win64; x64) AppleWebKit/537.36 (KHTML, like Gecko) draw.io/26.2.2 Chrome/134.0.6998.178 Electron/35.1.2 Safari/537.36" version="26.2.2" pages="2">
  <diagram name=".NET" id="qFxIqHkk4dqW_gUneSR0">
    <mxGraphModel dx="1094" dy="899" grid="1" gridSize="10" guides="1" tooltips="1" connect="1" arrows="1" fold="1" page="1" pageScale="1" pageWidth="827" pageHeight="1169" math="0" shadow="0">
      <root>
        <mxCell id="0" />
        <mxCell id="1" parent="0" />
        <mxCell id="JU-FAxFJMysAFs4_xZaB-1" value=".NET Solution" style="rounded=1;whiteSpace=wrap;html=1;arcSize=10;absoluteArcSize=1;verticalAlign=top;" vertex="1" parent="1">
          <mxGeometry x="140" y="350" width="280" height="360" as="geometry" />
        </mxCell>
        <mxCell id="JU-FAxFJMysAFs4_xZaB-2" value="MovieDb.AppHost" style="rounded=1;whiteSpace=wrap;html=1;arcSize=10;absoluteArcSize=1;verticalAlign=middle;" vertex="1" parent="1">
          <mxGeometry x="197.5" y="400" width="165" height="50" as="geometry" />
        </mxCell>
        <mxCell id="JU-FAxFJMysAFs4_xZaB-3" value="moviedb.client" style="rounded=1;whiteSpace=wrap;html=1;arcSize=10;absoluteArcSize=1;verticalAlign=middle;" vertex="1" parent="1">
          <mxGeometry x="197.5" y="460" width="165" height="50" as="geometry" />
        </mxCell>
        <mxCell id="JU-FAxFJMysAFs4_xZaB-4" value="MovieDb.Server" style="rounded=1;whiteSpace=wrap;html=1;arcSize=10;absoluteArcSize=1;verticalAlign=middle;" vertex="1" parent="1">
          <mxGeometry x="197.5" y="520" width="165" height="50" as="geometry" />
        </mxCell>
        <mxCell id="JU-FAxFJMysAFs4_xZaB-5" value="MovieDb.Server" style="rounded=1;whiteSpace=wrap;html=1;arcSize=10;absoluteArcSize=1;verticalAlign=middle;" vertex="1" parent="1">
          <mxGeometry x="197.5" y="580" width="165" height="50" as="geometry" />
        </mxCell>
        <mxCell id="JU-FAxFJMysAFs4_xZaB-6" value="MovieDb.ServiceDefaults" style="rounded=1;whiteSpace=wrap;html=1;arcSize=10;absoluteArcSize=1;verticalAlign=middle;" vertex="1" parent="1">
          <mxGeometry x="197.5" y="640" width="165" height="50" as="geometry" />
        </mxCell>
      </root>
    </mxGraphModel>
  </diagram>
  <diagram id="QAS0RoAm7HBP2Zk0uASw" name="Architecture">
    <mxGraphModel dx="3087" dy="914" grid="1" gridSize="10" guides="1" tooltips="1" connect="1" arrows="1" fold="1" page="1" pageScale="1" pageWidth="827" pageHeight="1169" math="0" shadow="0">
      <root>
        <mxCell id="0" />
        <mxCell id="1" parent="0" />
        <mxCell id="i9ITmiFJYr_i66X-4DS8-18" value="Azure Cloud" style="rounded=1;whiteSpace=wrap;html=1;arcSize=10;absoluteArcSize=1;verticalAlign=top;fontStyle=1" parent="1" vertex="1">
          <mxGeometry x="40" y="40" width="530" height="810" as="geometry" />
        </mxCell>
        <mxCell id="i9ITmiFJYr_i66X-4DS8-10" value="GitHub repository" style="rounded=1;whiteSpace=wrap;html=1;arcSize=10;absoluteArcSize=1;verticalAlign=middle;" parent="1" vertex="1">
          <mxGeometry x="-570" y="322.5" width="230" height="50" as="geometry" />
        </mxCell>
        <mxCell id="i9ITmiFJYr_i66X-4DS8-1" value="Azure Kubernetes Service" style="rounded=1;whiteSpace=wrap;html=1;arcSize=10;absoluteArcSize=1;verticalAlign=top;" parent="1" vertex="1">
          <mxGeometry x="80" y="490" width="290" height="230" as="geometry" />
        </mxCell>
        <mxCell id="i9ITmiFJYr_i66X-4DS8-2" value="Azure Container Registry" style="rounded=1;whiteSpace=wrap;html=1;arcSize=10;absoluteArcSize=1;verticalAlign=middle;" parent="1" vertex="1">
          <mxGeometry x="128.75" y="100" width="192.5" height="60" as="geometry" />
        </mxCell>
        <mxCell id="i9ITmiFJYr_i66X-4DS8-5" value="Cosmos DB&lt;div&gt;for NoSQL&lt;/div&gt;" style="shape=cylinder3;whiteSpace=wrap;html=1;boundedLbl=1;backgroundOutline=1;size=15;" parent="1" vertex="1">
          <mxGeometry x="420" y="545" width="100" height="130" as="geometry" />
        </mxCell>
        <mxCell id="i9ITmiFJYr_i66X-4DS8-6" value="MovieDb.Server Service" style="rounded=1;whiteSpace=wrap;html=1;arcSize=10;absoluteArcSize=1;verticalAlign=middle;" parent="1" vertex="1">
          <mxGeometry x="160" y="580" width="130" height="60" as="geometry" />
        </mxCell>
        <mxCell id="i9ITmiFJYr_i66X-4DS8-8" value="" style="endArrow=open;dashed=1;html=1;rounded=0;endFill=0;" parent="1" source="i9ITmiFJYr_i66X-4DS8-6" target="i9ITmiFJYr_i66X-4DS8-5" edge="1">
          <mxGeometry width="50" height="50" relative="1" as="geometry">
            <mxPoint x="280" y="540" as="sourcePoint" />
            <mxPoint x="330" y="490" as="targetPoint" />
            <Array as="points" />
          </mxGeometry>
        </mxCell>
        <mxCell id="i9ITmiFJYr_i66X-4DS8-9" value="" style="verticalLabelPosition=bottom;html=1;verticalAlign=top;align=center;strokeColor=none;fillColor=#00BEF2;shape=mxgraph.azure.github_code;pointerEvents=1;" parent="1" vertex="1">
          <mxGeometry x="-560" y="332.5" width="30" height="30" as="geometry" />
        </mxCell>
        <mxCell id="i9ITmiFJYr_i66X-4DS8-11" value="Azure DevOps" style="rounded=1;whiteSpace=wrap;html=1;arcSize=10;absoluteArcSize=1;verticalAlign=top;fontStyle=1" parent="1" vertex="1">
          <mxGeometry x="-220" y="260" width="192.5" height="170" as="geometry" />
        </mxCell>
        <mxCell id="i9ITmiFJYr_i66X-4DS8-12" value="Build Pipeline" style="rounded=1;whiteSpace=wrap;html=1;arcSize=10;absoluteArcSize=1;verticalAlign=middle;" parent="1" vertex="1">
          <mxGeometry x="-183.75" y="315" width="120" height="25" as="geometry" />
        </mxCell>
        <mxCell id="i9ITmiFJYr_i66X-4DS8-13" value="Build Pipeline" style="rounded=1;whiteSpace=wrap;html=1;arcSize=10;absoluteArcSize=1;verticalAlign=middle;" parent="1" vertex="1">
          <mxGeometry x="-183.75" y="347.5" width="120" height="25" as="geometry" />
        </mxCell>
        <mxCell id="i9ITmiFJYr_i66X-4DS8-14" value="Build Pipeline" style="rounded=1;whiteSpace=wrap;html=1;arcSize=10;absoluteArcSize=1;verticalAlign=middle;" parent="1" vertex="1">
          <mxGeometry x="-183.75" y="380" width="120" height="25" as="geometry" />
        </mxCell>
        <mxCell id="i9ITmiFJYr_i66X-4DS8-15" value="" style="endArrow=open;dashed=1;html=1;rounded=0;exitX=0.5;exitY=0;exitDx=0;exitDy=0;endFill=0;" parent="1" source="i9ITmiFJYr_i66X-4DS8-11" target="i9ITmiFJYr_i66X-4DS8-2" edge="1">
          <mxGeometry width="50" height="50" relative="1" as="geometry">
            <mxPoint x="221" y="340" as="sourcePoint" />
            <mxPoint x="430" y="340" as="targetPoint" />
            <Array as="points">
              <mxPoint x="-124" y="130" />
            </Array>
          </mxGeometry>
        </mxCell>
        <mxCell id="i9ITmiFJYr_i66X-4DS8-16" value="" style="endArrow=open;dashed=1;html=1;rounded=0;endFill=0;" parent="1" source="i9ITmiFJYr_i66X-4DS8-2" target="i9ITmiFJYr_i66X-4DS8-1" edge="1">
          <mxGeometry width="50" height="50" relative="1" as="geometry">
            <mxPoint x="230" y="470" as="sourcePoint" />
            <mxPoint x="180" y="520" as="targetPoint" />
          </mxGeometry>
        </mxCell>
        <mxCell id="i9ITmiFJYr_i66X-4DS8-17" value="" style="endArrow=open;dashed=1;html=1;rounded=0;endFill=0;" parent="1" source="i9ITmiFJYr_i66X-4DS8-11" target="i9ITmiFJYr_i66X-4DS8-1" edge="1">
          <mxGeometry width="50" height="50" relative="1" as="geometry">
            <mxPoint x="221" y="340" as="sourcePoint" />
            <mxPoint x="390" y="340" as="targetPoint" />
            <Array as="points" />
          </mxGeometry>
        </mxCell>
        <mxCell id="i9ITmiFJYr_i66X-4DS8-19" value="" style="endArrow=open;dashed=1;html=1;rounded=0;endFill=0;" parent="1" source="i9ITmiFJYr_i66X-4DS8-10" target="i9ITmiFJYr_i66X-4DS8-11" edge="1">
          <mxGeometry width="50" height="50" relative="1" as="geometry">
            <mxPoint x="-140" y="140" as="sourcePoint" />
            <mxPoint x="-190" y="190" as="targetPoint" />
          </mxGeometry>
        </mxCell>
        <mxCell id="i9ITmiFJYr_i66X-4DS8-20" value="" style="image;aspect=fixed;html=1;points=[];align=center;fontSize=12;image=img/lib/azure2/devops/Azure_DevOps.svg;" parent="1" vertex="1">
          <mxGeometry x="-210" y="270" width="30" height="30" as="geometry" />
        </mxCell>
        <mxCell id="i9ITmiFJYr_i66X-4DS8-21" value="" style="image;aspect=fixed;html=1;points=[];align=center;fontSize=12;image=img/lib/azure2/other/Azure_A.svg;" parent="1" vertex="1">
          <mxGeometry x="48.18" y="50" width="31.82" height="30" as="geometry" />
        </mxCell>
        <mxCell id="U6FdgHtYLh9im50XkY9C-1" value="" style="image;aspect=fixed;html=1;points=[];align=center;fontSize=12;image=img/lib/azure2/containers/Kubernetes_Services.svg;" vertex="1" parent="1">
          <mxGeometry x="90" y="500" width="34" height="30" as="geometry" />
        </mxCell>
        <mxCell id="U6FdgHtYLh9im50XkY9C-3" value="Key Vault" style="rounded=1;whiteSpace=wrap;html=1;arcSize=10;absoluteArcSize=1;verticalAlign=middle;" vertex="1" parent="1">
          <mxGeometry x="360" y="100" width="190" height="60" as="geometry" />
        </mxCell>
        <mxCell id="U6FdgHtYLh9im50XkY9C-2" value="" style="image;aspect=fixed;html=1;points=[];align=center;fontSize=12;image=img/lib/azure2/security/Key_Vaults.svg;" vertex="1" parent="1">
          <mxGeometry x="370" y="112.5" width="35" height="35" as="geometry" />
        </mxCell>
        <mxCell id="U6FdgHtYLh9im50XkY9C-4" value="" style="endArrow=open;dashed=1;html=1;rounded=0;endFill=0;entryX=1;entryY=0.25;entryDx=0;entryDy=0;" edge="1" parent="1" source="U6FdgHtYLh9im50XkY9C-3" target="i9ITmiFJYr_i66X-4DS8-1">
          <mxGeometry width="50" height="50" relative="1" as="geometry">
            <mxPoint x="300" y="360" as="sourcePoint" />
            <mxPoint x="430" y="360" as="targetPoint" />
            <Array as="points">
              <mxPoint x="455" y="230" />
            </Array>
          </mxGeometry>
        </mxCell>
        <mxCell id="U6FdgHtYLh9im50XkY9C-6" value="User" style="shape=umlActor;verticalLabelPosition=bottom;verticalAlign=top;html=1;outlineConnect=0;" vertex="1" parent="1">
          <mxGeometry x="-500" y="647.5" width="30" height="60" as="geometry" />
        </mxCell>
        <mxCell id="U6FdgHtYLh9im50XkY9C-7" value="Azure DNS Zone" style="rounded=1;whiteSpace=wrap;html=1;arcSize=10;absoluteArcSize=1;verticalAlign=top;" vertex="1" parent="1">
          <mxGeometry x="-320" y="632.5" width="230" height="90" as="geometry" />
        </mxCell>
        <mxCell id="U6FdgHtYLh9im50XkY9C-5" value="" style="image;aspect=fixed;html=1;points=[];align=center;fontSize=12;image=img/lib/azure2/networking/DNS_Zones.svg;" vertex="1" parent="1">
          <mxGeometry x="-310" y="640" width="30" height="30" as="geometry" />
        </mxCell>
        <mxCell id="U6FdgHtYLh9im50XkY9C-8" value="" style="endArrow=open;dashed=1;html=1;rounded=0;endFill=0;" edge="1" parent="1" source="U6FdgHtYLh9im50XkY9C-6" target="U6FdgHtYLh9im50XkY9C-7">
          <mxGeometry width="50" height="50" relative="1" as="geometry">
            <mxPoint x="-330" y="357" as="sourcePoint" />
            <mxPoint x="-210" y="356" as="targetPoint" />
          </mxGeometry>
        </mxCell>
        <mxCell id="U6FdgHtYLh9im50XkY9C-9" value="Kubernetes Ingress" style="rounded=1;whiteSpace=wrap;html=1;arcSize=10;absoluteArcSize=1;verticalAlign=middle;fillColor=#eeeeee;strokeColor=#36393d;" vertex="1" parent="1">
          <mxGeometry x="50" y="665" width="172" height="25" as="geometry" />
        </mxCell>
        <mxCell id="U6FdgHtYLh9im50XkY9C-11" value="" style="endArrow=none;dashed=1;html=1;rounded=0;endFill=0;entryX=0;entryY=0.5;entryDx=0;entryDy=0;exitX=1;exitY=0.5;exitDx=0;exitDy=0;startFill=0;" edge="1" parent="1" source="U6FdgHtYLh9im50XkY9C-7" target="U6FdgHtYLh9im50XkY9C-9">
          <mxGeometry width="50" height="50" relative="1" as="geometry">
            <mxPoint x="-460" y="685" as="sourcePoint" />
            <mxPoint x="-240" y="685" as="targetPoint" />
            <Array as="points" />
          </mxGeometry>
        </mxCell>
      </root>
    </mxGraphModel>
  </diagram>
</mxfile>
